<svg width="20" height="20" viewBox="0 0 20 20" fill="none" xmlns="http://www.w3.org/2000/svg">
<path d="M14.1665 5.83337H11.6665C11.2082 5.83337 10.8332 6.20837 10.8332 6.66671C10.8332 7.12504 11.2082 7.50004 11.6665 7.50004H14.1665C15.5415 7.50004 16.6665 8.62504 16.6665 10C16.6665 11.375 15.5415 12.5 14.1665 12.5H11.6665C11.2082 12.5 10.8332 12.875 10.8332 13.3334C10.8332 13.7917 11.2082 14.1667 11.6665 14.1667H14.1665C16.4665 14.1667 18.3332 12.3 18.3332 10C18.3332 7.70004 16.4665 5.83337 14.1665 5.83337ZM6.6665 10C6.6665 10.4584 7.0415 10.8334 7.49984 10.8334H12.4998C12.9582 10.8334 13.3332 10.4584 13.3332 10C13.3332 9.54171 12.9582 9.16671 12.4998 9.16671H7.49984C7.0415 9.16671 6.6665 9.54171 6.6665 10ZM8.33317 12.5H5.83317C4.45817 12.5 3.33317 11.375 3.33317 10C3.33317 8.62504 4.45817 7.50004 5.83317 7.50004H8.33317C8.7915 7.50004 9.1665 7.12504 9.1665 6.66671C9.1665 6.20837 8.7915 5.83337 8.33317 5.83337H5.83317C3.53317 5.83337 1.6665 7.70004 1.6665 10C1.6665 12.3 3.53317 14.1667 5.83317 14.1667H8.33317C8.7915 14.1667 9.1665 13.7917 9.1665 13.3334C9.1665 12.875 8.7915 12.5 8.33317 12.5Z" fill="#0988E9"/>
</svg>
