<svg width="20" height="20" viewBox="0 0 20 20" fill="none" xmlns="http://www.w3.org/2000/svg">
<path d="M14.1667 5.8335H11.6667C11.2084 5.8335 10.8334 6.2085 10.8334 6.66683C10.8334 7.12516 11.2084 7.50016 11.6667 7.50016H14.1667C15.5417 7.50016 16.6667 8.62516 16.6667 10.0002C16.6667 11.3752 15.5417 12.5002 14.1667 12.5002H11.6667C11.2084 12.5002 10.8334 12.8752 10.8334 13.3335C10.8334 13.7918 11.2084 14.1668 11.6667 14.1668H14.1667C16.4667 14.1668 18.3334 12.3002 18.3334 10.0002C18.3334 7.70016 16.4667 5.8335 14.1667 5.8335ZM6.66669 10.0002C6.66669 10.4585 7.04169 10.8335 7.50002 10.8335H12.5C12.9584 10.8335 13.3334 10.4585 13.3334 10.0002C13.3334 9.54183 12.9584 9.16683 12.5 9.16683H7.50002C7.04169 9.16683 6.66669 9.54183 6.66669 10.0002ZM8.33335 12.5002H5.83335C4.45835 12.5002 3.33335 11.3752 3.33335 10.0002C3.33335 8.62516 4.45835 7.50016 5.83335 7.50016H8.33335C8.79169 7.50016 9.16669 7.12516 9.16669 6.66683C9.16669 6.2085 8.79169 5.8335 8.33335 5.8335H5.83335C3.53335 5.8335 1.66669 7.70016 1.66669 10.0002C1.66669 12.3002 3.53335 14.1668 5.83335 14.1668H8.33335C8.79169 14.1668 9.16669 13.7918 9.16669 13.3335C9.16669 12.8752 8.79169 12.5002 8.33335 12.5002Z" fill="#0988E9"/>
</svg>
